<mxfile host="app.diagrams.net" modified="2024-01-16T15:20:27.610Z" agent="Mozilla/5.0 (Windows NT 10.0; Win64; x64; rv:109.0) Gecko/20100101 Firefox/115.0" version="22.1.19" etag="0ufsqYY8-tHY2SStoBI1" type="github">
  <diagram name="Page-1" id="dW76U_R7jVDx-yDk-tSp">
    <mxGraphModel>
      <root>
        <mxCell id="0" />
        <mxCell id="1" parent="0" />
      </root>
    </mxGraphModel>
  </diagram>
</mxfile>
